<?xml version="1.0" encoding="UTF-8"?>
<svg
      version="1.1"
      viewBox="500 0 1096 979"
      width="1024"
      xmlns="http://www.w3.org/2000/svg"
    >
      <defs>
        <style type="text/css">
          <![CDATA[
                    .bg {
                      fill: url(#grad2);
                      fill-opacity: 0.95;
                    }
                    .blue1 {
                      fill: #1886e2;
                    }
                    .blue2 {
                      fill: #2453ab;
                    }
                    .yellow {
                      fill: #feaa04;
                    }
                    .orange {
                      fill: #fe7d04;
                    }
                    .white {
                      filter: drop-shadow(3px 5px 2px rgb(0 0 0 / 0.4));
                      fill: url(#grad3);
                    }]]>
        </style>
        <linearGradient id="grad2" x1="0%" y1="0%" x2="100%" y2="100%">
          <stop offset="0%" stop-color="#0c2843" />
          <stop offset="100%" stop-color="#0f0f0f" />
        </linearGradient>

        <linearGradient id="grad3" x1="0%" y1="0%" x2="100%" y2="100%">
          <stop offset="0%" stop-color="#8e8e8e" />
          <stop offset="100%" stop-color="antiquewhite" />
        </linearGradient>

        <clipPath id="rounded-clip">
          <rect width="2048" height="979" rx="200" ry="200" />
        </clipPath>
      </defs>
      <rect
        class="bg"
        x="500"
        y="0"
        rx="200"
        ry="300"
        width="1096"
        height="979"
      />
      <path
        id="path2"
        class="blue1"
        transform="translate(1069,620)"
        d="m0 0h384l-3 3-18 10-24 14-23 13-24 14-25 14-24 14-28 16-26 15-21 12v210l-2 6-3 2-19-10-24-14-25-14-17-10-26-15-27-16-26-15-14-7-6-5-3-5-1-4v-207l4-8 10-7z"
      />
      <path
        id="path3"
        class="yellow"
        transform="translate(874,18)"
        d="m0 0 6 1 20 11 41 24 52 30 24 14 26 15 18 11 2 5v211l-3 6-7 6-14 8h-383l5-4 27-15 24-14 56-32 52-30 49-28 2-1v-185l1-30z"
      />
      <path
        id="R"
        class="white"
        transform="translate(640,381)"
        d="m0 0 30 1 23 3 15 4 12 5 11 9 7 9 5 10 3 11 1 7v15l-3 15-6 12-9 10-8 5 5 5 7 9 5 13 16 62-1 7-3 2h-73l-3-6-8-33-5-21-3-13h-22v68l-4 5h-68l-4-3-1-3v-199l2-4 8-2 42-2z M4 53h18l9 2 5 4 2 4v19l-3 4-3 1-28 1z"
        fill-rule="evenodd"
      />
      <path
        id="E"
        class="blue2"
        transform="translate(1138,174)"
        d="m0 0 7 1 20 11 24 14 26 15 27 16 23 13 24 14 26 15 24 14 104 60 21 12v1h-327v-184z"
      />
      <path
        id="G"
        class="white"
        transform="translate(1016,381)"
        d="m0 0h37l35 5 14 3 3 2 1 3v9l-3 28-3 9-2 2-81 1-9 1-3 10-3 18v30l4 18 5 8 7 6 15 4 6 1v-63l4-4h67l4 4v104l-3 4-23 7-26 5-25 3h-26l-20-4-13-4-16-8-13-10-7-7-7-10-8-16-5-19-2-14v-30l3-20 5-16 4-9 6-10 7-9 8-8 10-7 16-8 15-5z"
      />
      <path
        id="O"
        class="white"
        transform="translate(1217,381)"
        d="m0 0h34l20 3 15 5 17 9 12 10 10 13 8 17 5 19 2 16v27l-3 21-4 15-7 16-9 14-10 11-14 10-16 7-16 4-18 2h-17l-21-2-21-5-16-7-12-8-13-13-8-13-6-15-4-17-2-18v-25l3-21 5-17 7-14 9-12 7-7 14-10 15-7 16-5z m4 55 h14 l9 3 l7 6 l4 9 l3 14 l1 14 v19 l-2 18 l-4 14 l-6 8 l-6 3 l-5 1 h-11 l-7 -3 l-5 -4 l-5 -10 l-3 -16 l-1 -14  l1 -31 l3 -21 l3 -7 z"
        fill-rule="evenodd"
      />

      <path
        id="RR"
        class="white"
        transform="translate(1406,382)"
        d="m0 0h54l27 3 15 4 10 4 11 8 8 8 7 14 3 13v24l-3 12-5 10-9 10-9 6 7 5 7 11 5 16 15 57-1 5-3 3h-73l-4-8-14-59-2-6h-21v67l-3 5-1 1h-69l-4-5v-201l4-4 5-1z M25 52h18l9 2 5 5 2 8v8l-2 9-4 2-11 1h-17z"
        fill-rule="evenodd"
      />
      <path
        id="path7"
        class="orange"
        transform="translate(643,620)"
        d="m0 0h328l1 1v179l-3 7-5-1-20-11-24-14-26-15-28-16-24-14-28-16-24-14-28-16-78-45-24-14-17-10z"
      />
      <path
        id="path10"
        class="white"
        transform="translate(765,383)"
        d="m0 0h149l4 4v47l-3 4-5 1h-74l1 4v18h64l4 4v43l-3 4-65 1v25l77 1 4 5v46l-4 5h-150l-4-4v-204z"
      />
      <path
        id="path11"
        class="orange"
        transform="translate(874,18)"
        d="m0 0 6 1 20 11 41 24 52 30 24 14 26 15 18 11 1 5-20 11-21 12-26 15-24 14-22 13-53 31-16 9-8 2-1-43v-142l1-30z"
      />
      <path
        id="path12"
        class="blue2"
        transform="translate(1234,745)"
        d="m0 0h2l1 168v42l-2 6-3 2-19-10-24-14-25-14-17-10-26-15-27-16-26-15-14-7-6-5-2-5 15-8 11-8 26-14 24-14 25-14 24-14 28-16 15-9 16-8z"
      />
    </svg>